<?xml version="1.0" encoding="UTF-8" standalone="no"?>
<svg
   xmlns:dc="http://purl.org/dc/elements/1.1/"
   xmlns:cc="http://creativecommons.org/ns#"
   xmlns:rdf="http://www.w3.org/1999/02/22-rdf-syntax-ns#"
   xmlns:svg="http://www.w3.org/2000/svg"
   xmlns="http://www.w3.org/2000/svg"
   xmlns:sodipodi="http://sodipodi.sourceforge.net/DTD/sodipodi-0.dtd"
   xmlns:inkscape="http://www.inkscape.org/namespaces/inkscape"
   viewBox="0 0 447.68914 346.17807"
   version="1.1"
   id="svg1262"
   sodipodi:docname="Neo_SPCC_symbol.svg"
   inkscape:version="0.92.3 (2405546, 2018-03-11)"
   width="447.68915"
   height="346.17807">
  <metadata
     id="metadata1266">
    <rdf:RDF>
      <cc:Work
         rdf:about="">
        <dc:format>image/svg+xml</dc:format>
        <dc:type
           rdf:resource="http://purl.org/dc/dcmitype/StillImage" />
        <dc:title>Asset 9</dc:title>
      </cc:Work>
    </rdf:RDF>
  </metadata>
  <sodipodi:namedview
     pagecolor="#ffffff"
     bordercolor="#666666"
     borderopacity="1"
     objecttolerance="10"
     gridtolerance="10"
     guidetolerance="10"
     inkscape:pageopacity="0"
     inkscape:pageshadow="2"
     inkscape:window-width="3840"
     inkscape:window-height="2049"
     id="namedview1264"
     showgrid="false"
     inkscape:zoom="0.64043419"
     inkscape:cx="-785.8088"
     inkscape:cy="169.49412"
     inkscape:window-x="0"
     inkscape:window-y="55"
     inkscape:window-maximized="1"
     inkscape:current-layer="svg1262" />
  <defs
     id="defs1252">
    <style
       id="style1250">.cls-1{fill:#00e599;}.cls-2{fill:#00af92;}</style>
  </defs>
  <title
     id="title1254">Asset 9</title>
  <g
     id="g2217"
     transform="matrix(3.5313121,0,0,3.5313121,-276.16979,-327.28907)">
    <g
       id="g2199">
      <g
         id="g2197">
        <path
           d="m 163.612,173.979 h 11.06 v 5.289 h -11.06 v 4.336 h 12.678 v 5.402 h -18.894 v -24.988 h 18.894 v 5.402 h -12.678 z"
           id="path2191"
           inkscape:connector-curvature="0" />
        <path
           d="m 204.982,176.516 c 0,7.273 -5.693,13.008 -13.265,13.008 -7.533,0 -13.23,-5.734 -13.23,-13.008 0,-7.279 5.697,-13.012 13.23,-13.012 7.572,0 13.265,5.733 13.265,13.012 z m -6.318,0 c 0,-3.936 -2.904,-7.242 -6.946,-7.242 -4.041,0 -6.943,3.307 -6.943,7.242 0,3.93 2.902,7.238 6.943,7.238 4.042,0 6.946,-3.308 6.946,-7.238 z"
           id="path2193"
           inkscape:connector-curvature="0" />
        <path
           d="m 153.029,189.006 h -4.813 l -11.979,-13.709 v 13.709 h -6.21 v -24.988 h 4.741 l 12.052,14.076 v -14.076 h 6.21 v 24.988 z"
           id="path2195"
           inkscape:connector-curvature="0" />
      </g>
    </g>
    <g
       id="g2205">
      <path
         d="m 103.544,124.765 -25.337,25.336 v -37.326 z m 27.502,-32.083 -51.064,18.65 25.092,11.903 29.085,-29.086 z"
         id="path2201"
         inkscape:connector-curvature="0" />
      <path
         d="M 113.396,174.959 97.642,190.713 78.206,181.27 v -22.15 l 31.456,-31.458 3.733,1.765 v 45.532 z m 1.221,-47.197 51.289,-18.65 -25.62,-12.073 -29.097,29.099 z m 51.846,-16.874 -36.192,12.989 v 34.209 l 36.192,-36.193 z"
         id="path2203"
         inkscape:connector-curvature="0" />
    </g>
    <g
       id="g2215">
      <path
         d="m 166.574,149.53 h -1.198 c -0.273,-1.421 -1.303,-2.346 -3.253,-2.346 -1.764,0 -2.927,0.857 -2.927,2.209 0,1.061 0.838,1.713 2.379,1.986 l 1.764,0.342 c 2.071,0.395 3.235,1.371 3.235,3.031 0,2.123 -1.729,3.527 -4.332,3.527 -2.791,0 -4.571,-1.455 -4.846,-3.973 h 1.199 c 0.291,1.816 1.558,2.877 3.698,2.877 1.866,0 3.048,-0.908 3.048,-2.295 0,-0.975 -0.685,-1.713 -2.192,-1.986 l -2.02,-0.393 c -2.141,-0.395 -3.221,-1.473 -3.221,-3.049 0,-2.003 1.663,-3.339 4.128,-3.339 2.363,0.002 4.248,1.114 4.538,3.409 z"
         id="path2207"
         inkscape:connector-curvature="0" />
      <path
         d="m 173.304,146.379 c 2.671,0 4.453,1.541 4.453,3.853 0,2.38 -1.833,3.956 -4.607,3.956 h -2.688 v 3.834 h -1.216 v -11.643 z m -0.052,6.696 c 1.986,0 3.305,-1.146 3.305,-2.843 0,-1.644 -1.318,-2.739 -3.305,-2.739 h -2.79 v 5.582 z"
         id="path2209"
         inkscape:connector-curvature="0" />
      <path
         d="m 189.88,153.93 h 1.268 c -0.565,2.568 -2.689,4.332 -5.549,4.332 -3.355,0 -6.044,-2.637 -6.044,-6.061 0,-3.426 2.688,-6.063 6.044,-6.063 2.859,0 4.983,1.765 5.549,4.332 h -1.268 c -0.497,-1.917 -2.089,-3.167 -4.281,-3.167 -2.705,0 -4.811,2.106 -4.811,4.897 0,2.791 2.105,4.896 4.811,4.896 2.192,0.002 3.784,-1.248 4.281,-3.166 z"
         id="path2211"
         inkscape:connector-curvature="0" />
      <path
         d="m 203.714,153.93 h 1.269 c -0.565,2.568 -2.688,4.332 -5.548,4.332 -3.356,0 -6.045,-2.637 -6.045,-6.061 0,-3.426 2.688,-6.063 6.045,-6.063 2.86,0 4.982,1.765 5.548,4.332 h -1.269 c -0.494,-1.917 -2.089,-3.167 -4.279,-3.167 -2.706,0 -4.813,2.106 -4.813,4.897 0,2.791 2.106,4.896 4.813,4.896 2.19,0.002 3.785,-1.248 4.279,-3.166 z"
         id="path2213"
         inkscape:connector-curvature="0" />
    </g>
  </g>
</svg>
